<svg width="228" height="51" viewBox="0 0 228 51" fill="none" xmlns="http://www.w3.org/2000/svg">
<path d="M12.3347 5.98349C13.5637 6.57853 14.8904 6.9288 16.2232 7.11923C17.5574 7.31103 18.907 7.3366 20.2347 7.20782C21.5511 7.06762 22.8933 6.83655 24.1162 6.42555C25.3545 6.00541 26.5526 5.42133 27.7521 4.80574C28.9563 4.19517 30.1666 3.55218 31.4503 2.96992C32.7349 2.3968 34.1009 1.86022 35.6479 1.65563C36.4162 1.55288 37.2342 1.54922 38.0427 1.69718C38.8522 1.84058 39.6407 2.14061 40.3436 2.54385C41.7554 3.36312 42.7987 4.53402 43.6316 5.73187C44.4584 6.94204 45.1594 8.29333 45.549 9.74965C45.9404 11.2019 46.0643 12.7166 45.9698 14.172C45.7762 17.0984 44.9186 19.7745 44.117 22.3369C43.2926 24.8992 42.4517 27.378 41.941 29.8852C41.682 31.1364 41.4991 32.39 41.4131 33.6431C41.3256 34.8798 41.3429 36.1758 41.3944 37.4622C41.4879 40.0424 41.8606 42.5317 42.5251 45.0567L42.7739 46.0513C42.8558 46.4015 42.9427 46.7628 42.9979 47.2345C43.0218 47.4738 43.0428 47.7473 42.9965 48.1122C42.9759 48.2867 42.925 48.5031 42.8441 48.7173C42.7562 48.9402 42.6285 49.1685 42.4625 49.3694C42.1272 49.7741 41.7175 50.001 41.4107 50.1266C41.0955 50.2545 40.8337 50.3148 40.5952 50.3618C40.1252 50.4476 39.7314 50.4746 39.3503 50.4951C39.2871 50.502 39.0688 50.5011 38.9196 50.4956C38.7531 50.4951 38.602 50.4623 38.444 50.439C38.1372 50.381 37.8533 50.2874 37.6017 50.1764C36.5958 49.7179 36.0038 49.0982 35.4721 48.5178C34.4465 47.3368 33.724 46.1403 33.0146 44.9525C32.315 43.7638 31.6668 42.5792 31.013 41.4138C30.3607 40.2484 29.7008 39.103 29.0087 37.9988C28.3231 36.8928 27.5969 35.8251 26.785 34.8843C25.9755 33.9536 25.065 33.128 24.0881 32.7156C23.1182 32.285 22.1062 32.3242 21.0591 32.7736C20.9287 32.8257 20.7996 32.8868 20.6715 32.9576C20.5415 33.0206 20.4143 33.0937 20.288 33.1736L20.0972 33.2883L19.8811 33.428L19.4486 33.7075C18.8706 34.0788 18.2888 34.4459 17.7 34.8049C16.5225 35.5218 15.3253 36.2178 14.0804 36.8466C12.8281 37.4613 11.5406 38.0321 10.1746 38.4413C8.81704 38.8432 7.35611 39.1209 5.88863 38.924C5.16003 38.8268 4.44453 38.6098 3.80105 38.2742C3.15616 37.9399 2.58703 37.4947 2.10161 36.9905C1.13872 35.9666 0.496643 34.745 0 33.5002C0.673414 34.6624 1.44129 35.7894 2.45936 36.627C3.45779 37.4791 4.69799 37.9773 5.97093 38.0034C7.24481 38.0335 8.52009 37.7047 9.73457 37.2243C10.9528 36.7443 12.1205 36.1055 13.2588 35.4209C14.3998 34.7368 15.5133 33.9934 16.6081 33.2193C17.1557 32.8325 17.6991 32.4375 18.2388 32.0365L18.6433 31.7351L18.8458 31.5844L19.081 31.4196C19.2358 31.3077 19.3962 31.2008 19.5664 31.1017C19.7306 30.9976 19.9027 30.9008 20.0836 30.8126C20.7926 30.4519 21.6049 30.1719 22.4728 30.1199C23.3371 30.0527 24.2214 30.1971 25.001 30.4934C26.5797 31.088 27.7512 32.1224 28.7632 33.1654C30.7652 35.2944 32.1971 37.6654 33.5959 39.9853C34.2922 41.1457 34.9698 42.3016 35.6685 43.4122C36.3648 44.5146 37.092 45.6037 37.8702 46.4399C38.249 46.8482 38.6708 47.177 38.9177 47.2761C38.978 47.3021 39.022 47.3126 39.0505 47.3176C39.0622 47.3135 39.0781 47.329 39.0837 47.3204C39.1057 47.3149 39.0589 47.3277 39.1665 47.3185C39.4686 47.3012 39.759 47.2715 39.9615 47.2313C40.0578 47.2121 40.1298 47.1861 40.1298 47.1861C40.1373 47.1829 40.0246 47.2231 39.9058 47.3679C39.7805 47.5145 39.7426 47.6848 39.7417 47.704C39.7389 47.7368 39.7436 47.6738 39.7309 47.5811C39.7076 47.3884 39.6435 47.0961 39.5682 46.7961L39.3203 45.8449C38.9696 44.5306 38.6544 43.1469 38.4388 41.7663C38.2204 40.3831 38.0829 38.9916 38.0165 37.6038C37.9539 36.2192 37.96 34.8364 38.0694 33.4061C38.1807 31.9918 38.4005 30.5948 38.6979 29.2285C39.2937 26.493 40.1869 23.8854 41.0605 21.3669C41.9387 18.8534 42.7786 16.3878 43.0059 13.9633C43.236 11.5471 42.7244 9.21443 41.4089 7.13384C40.764 6.09446 39.9853 5.17473 39.0594 4.57877C38.1367 3.97825 37.0611 3.73987 35.8742 3.81522C34.6888 3.88692 33.4425 4.26139 32.2093 4.7208C30.9714 5.1834 29.7354 5.74557 28.4634 6.27622C27.1886 6.79956 25.8778 7.31103 24.4893 7.65627C24.1423 7.74076 23.7897 7.81565 23.4353 7.8741L22.3859 8.01613C21.6844 8.0892 20.9806 8.13897 20.2758 8.12573C17.4765 8.10838 14.6337 7.47908 12.3347 5.98349Z" fill="#083342"/>
<path d="M18.7443 3.62161C16.9303 2.99368 15.0877 2.57537 13.298 2.48587C12.4067 2.44614 11.5317 2.49043 10.7133 2.65575C9.8959 2.82608 9.13831 3.10602 8.46724 3.5015C7.79429 3.89378 7.20973 4.40434 6.70186 4.99938C6.45307 5.30398 6.22018 5.62091 6.00273 5.95793C5.88067 6.12142 5.80631 6.29039 5.71185 6.45479L5.57576 6.70185L5.46961 6.95941C4.87803 8.31298 4.80742 9.841 5.10952 11.4677C5.38403 13.0916 5.96952 14.7708 6.5957 16.4691C7.2275 18.172 7.92523 19.9005 8.53738 21.687C9.14626 23.4726 9.69808 25.3116 10.0053 27.2086C10.3172 29.097 10.393 31.051 10.0367 32.9097C9.30713 29.2029 7.72695 25.9683 6.07474 22.6757C5.24186 21.0326 4.39542 19.3712 3.61258 17.6322C3.22396 16.7591 2.86808 15.8608 2.53605 14.9356C2.22366 14.0013 1.95383 13.0313 1.77098 12.0152C1.60403 10.9982 1.51377 9.92913 1.62834 8.83221C1.74713 7.74168 2.04736 6.63198 2.56598 5.63644L2.75865 5.26288L2.98265 4.91033C3.13557 4.67925 3.28008 4.43493 3.45077 4.23172C3.7669 3.80108 4.13868 3.40195 4.52449 3.01697C5.30593 2.25159 6.25245 1.61317 7.28221 1.18299C8.31197 0.75189 9.41282 0.532688 10.4819 0.503918C11.5537 0.472408 12.5914 0.633612 13.5721 0.891631C14.5513 1.16152 15.4778 1.53325 16.3415 1.99814C17.2057 2.45892 18.0246 2.98638 18.7443 3.62161Z" fill="#82D4EC"/>
<path d="M10.6418 43.1843C11.203 44.0515 11.7179 44.884 12.273 45.6343C12.8117 46.3714 13.4332 47.066 13.9692 47.3245C14.2357 47.4492 14.3952 47.43 14.5056 47.3921C14.7141 47.3391 14.8717 47.2724 15.0607 47.1245C15.4455 46.8377 15.93 46.2052 16.3514 45.4699C17.2273 43.9885 18.0326 42.1933 19.1919 40.4927C19.7806 39.6474 20.455 38.7934 21.3664 38.1116C21.8224 37.7773 22.341 37.4883 22.9059 37.3458C23.4648 37.1905 24.0582 37.2211 24.5492 37.3978C23.5443 37.7682 23.0083 38.4468 22.5949 39.2003C22.1815 39.957 21.871 40.7991 21.561 41.6673C20.9282 43.4072 20.3694 45.2553 19.2803 47.129C18.7088 48.0437 18.034 49.0598 16.7269 49.806C16.0726 50.1609 15.2472 50.3773 14.4663 50.3106C14.0314 50.2819 13.6053 50.1673 13.2293 49.9965C12.8608 49.8152 12.5527 49.5882 12.2922 49.3484C11.789 48.8616 11.4663 48.3333 11.233 47.8168C10.9982 47.298 10.8429 46.7797 10.7354 46.2645C10.5329 45.232 10.4805 44.2063 10.6418 43.1843Z" fill="#82D4EC"/>
<path d="M66.45 12.248C68.374 12.248 70.0553 12.6293 71.494 13.392C72.9327 14.1547 74.042 15.2293 74.822 16.616C75.6193 17.9853 76.018 19.5713 76.018 21.374C76.018 23.1593 75.6193 24.7453 74.822 26.132C74.042 27.5187 72.924 28.5933 71.468 29.356C70.0293 30.1187 68.3567 30.5 66.45 30.5H59.612V12.248H66.45ZM66.164 26.652C67.8453 26.652 69.154 26.1927 70.09 25.274C71.026 24.3553 71.494 23.0553 71.494 21.374C71.494 19.6927 71.026 18.384 70.09 17.448C69.154 16.512 67.8453 16.044 66.164 16.044H64.058V26.652H66.164ZM82.9486 15.81V19.502H88.9026V22.934H82.9486V26.938H89.6826V30.5H78.5026V12.248H89.6826V15.81H82.9486ZM108.897 30.5H104.451L97.015 19.242V30.5H92.569V12.248H97.015L104.451 23.558V12.248H108.897V30.5ZM125.25 12.248V15.81H120.414V30.5H115.968V15.81H111.132V12.248H125.25ZM138.843 27.276H132.031L130.939 30.5H126.285L132.889 12.248H138.037L144.641 30.5H139.935L138.843 27.276ZM137.699 23.844L135.437 17.162L133.201 23.844H137.699ZM151.097 27.068H156.921V30.5H146.651V12.248H151.097V27.068Z" fill="#083342"/>
<path d="M158.288 21.348C158.288 19.5453 158.678 17.942 159.458 16.538C160.238 15.1167 161.321 14.016 162.708 13.236C164.112 12.4387 165.698 12.04 167.466 12.04C169.632 12.04 171.487 12.612 173.03 13.756C174.572 14.9 175.604 16.46 176.124 18.436H171.236C170.872 17.6733 170.352 17.0927 169.676 16.694C169.017 16.2953 168.263 16.096 167.414 16.096C166.044 16.096 164.935 16.5727 164.086 17.526C163.236 18.4793 162.812 19.7533 162.812 21.348C162.812 22.9427 163.236 24.2167 164.086 25.17C164.935 26.1233 166.044 26.6 167.414 26.6C168.263 26.6 169.017 26.4007 169.676 26.002C170.352 25.6033 170.872 25.0227 171.236 24.26H176.124C175.604 26.236 174.572 27.796 173.03 28.94C171.487 30.0667 169.632 30.63 167.466 30.63C165.698 30.63 164.112 30.24 162.708 29.46C161.321 28.6627 160.238 27.562 159.458 26.158C158.678 24.754 158.288 23.1507 158.288 21.348ZM190.208 27.276H183.396L182.304 30.5H177.65L184.254 12.248H189.402L196.006 30.5H191.3L190.208 27.276ZM189.064 23.844L186.802 17.162L184.566 23.844H189.064ZM207.324 30.5L203.528 23.61H202.462V30.5H198.016V12.248H205.478C206.917 12.248 208.139 12.4993 209.144 13.002C210.167 13.5047 210.93 14.198 211.432 15.082C211.935 15.9487 212.186 16.9193 212.186 17.994C212.186 19.2073 211.84 20.2907 211.146 21.244C210.47 22.1973 209.465 22.8733 208.13 23.272L212.342 30.5H207.324ZM202.462 20.464H205.218C206.033 20.464 206.64 20.2647 207.038 19.866C207.454 19.4673 207.662 18.904 207.662 18.176C207.662 17.4827 207.454 16.9367 207.038 16.538C206.64 16.1393 206.033 15.94 205.218 15.94H202.462V20.464ZM219.423 15.81V19.502H225.377V22.934H219.423V26.938H226.157V30.5H214.977V12.248H226.157V15.81H219.423Z" fill="#83C8DE"/>
<path d="M85.1857 37.622H86.396L88.8164 41.6958H88.9187L91.3391 37.622H92.5494L89.396 42.7527V46.3492H88.3391V42.7527L85.1857 37.622ZM100.87 41.9856C100.87 42.9061 100.703 43.7015 100.371 44.372C100.039 45.0424 99.5827 45.5595 99.0032 45.9231C98.4237 46.2867 97.7617 46.4686 97.0174 46.4686C96.2731 46.4686 95.6112 46.2867 95.0316 45.9231C94.4521 45.5595 93.9961 45.0424 93.6637 44.372C93.3313 43.7015 93.1651 42.9061 93.1651 41.9856C93.1651 41.0652 93.3313 40.2697 93.6637 39.5992C93.9961 38.9288 94.4521 38.4117 95.0316 38.0481C95.6112 37.6845 96.2731 37.5027 97.0174 37.5027C97.7617 37.5027 98.4237 37.6845 99.0032 38.0481C99.5827 38.4117 100.039 38.9288 100.371 39.5992C100.703 40.2697 100.87 41.0652 100.87 41.9856ZM99.8469 41.9856C99.8469 41.2299 99.7205 40.5921 99.4677 40.0723C99.2177 39.5524 98.8782 39.1589 98.4492 38.8919C98.0231 38.6248 97.5458 38.4913 97.0174 38.4913C96.489 38.4913 96.0103 38.6248 95.5813 38.8919C95.1552 39.1589 94.8157 39.5524 94.5629 40.0723C94.3129 40.5921 94.1879 41.2299 94.1879 41.9856C94.1879 42.7413 94.3129 43.3791 94.5629 43.899C94.8157 44.4188 95.1552 44.8123 95.5813 45.0794C96.0103 45.3464 96.489 45.4799 97.0174 45.4799C97.5458 45.4799 98.0231 45.3464 98.4492 45.0794C98.8782 44.8123 99.2177 44.4188 99.4677 43.899C99.7205 43.3791 99.8469 42.7413 99.8469 41.9856ZM108.374 37.622H109.431V43.4004C109.431 43.997 109.29 44.5296 109.009 44.9984C108.73 45.4643 108.337 45.8322 107.828 46.1021C107.32 46.3691 106.723 46.5027 106.039 46.5027C105.354 46.5027 104.757 46.3691 104.249 46.1021C103.74 45.8322 103.346 45.4643 103.064 44.9984C102.786 44.5296 102.647 43.997 102.647 43.4004V37.622H103.703V43.3152C103.703 43.7413 103.797 44.1205 103.985 44.4529C104.172 44.7825 104.439 45.0424 104.786 45.2328C105.135 45.4203 105.553 45.514 106.039 45.514C106.525 45.514 106.942 45.4203 107.292 45.2328C107.641 45.0424 107.908 44.7825 108.093 44.4529C108.28 44.1205 108.374 43.7413 108.374 43.3152V37.622ZM111.541 46.3492V37.622H114.49C115.172 37.622 115.732 37.7384 116.169 37.9714C116.607 38.2015 116.93 38.5183 117.141 38.9217C117.351 39.3251 117.456 39.7839 117.456 40.2981C117.456 40.8123 117.351 41.2683 117.141 41.666C116.93 42.0637 116.608 42.3762 116.173 42.6035C115.739 42.8279 115.183 42.9402 114.507 42.9402H112.121V41.9856H114.473C114.939 41.9856 115.314 41.9174 115.598 41.7811C115.885 41.6447 116.092 41.4515 116.22 41.2015C116.351 40.9487 116.416 40.6475 116.416 40.2981C116.416 39.9487 116.351 39.6433 116.22 39.3819C116.089 39.1205 115.881 38.9188 115.594 38.7768C115.307 38.6319 114.928 38.5595 114.456 38.5595H112.598V46.3492H111.541ZM115.649 42.4288L117.797 46.3492H116.57L114.456 42.4288H115.649ZM122.115 38.5595V37.622H128.66V38.5595H125.916V46.3492H124.859V38.5595H122.115ZM129.63 46.3492H128.522L131.726 37.622H132.817L136.022 46.3492H134.914L132.306 39.0027H132.238L129.63 46.3492ZM130.039 42.9402H134.505V43.8777H130.039V42.9402ZM142.937 40.3492C142.843 40.0623 142.719 39.8052 142.566 39.5779C142.415 39.3478 142.235 39.1518 142.025 38.9899C141.817 38.8279 141.582 38.7044 141.317 38.6191C141.053 38.5339 140.763 38.4913 140.448 38.4913C139.931 38.4913 139.461 38.6248 139.038 38.8919C138.614 39.1589 138.278 39.5524 138.028 40.0723C137.778 40.5921 137.653 41.2299 137.653 41.9856C137.653 42.7413 137.779 43.3791 138.032 43.899C138.285 44.4188 138.627 44.8123 139.059 45.0794C139.491 45.3464 139.977 45.4799 140.516 45.4799C141.016 45.4799 141.457 45.3734 141.837 45.1603C142.221 44.9444 142.519 44.6404 142.732 44.2484C142.948 43.8535 143.056 43.389 143.056 42.8549L143.38 42.9231H140.755V41.9856H144.079V42.9231C144.079 43.6419 143.925 44.2669 143.619 44.7981C143.315 45.3294 142.894 45.7413 142.357 46.0339C141.823 46.3237 141.21 46.4686 140.516 46.4686C139.744 46.4686 139.065 46.2867 138.479 45.9231C137.897 45.5595 137.442 45.0424 137.116 44.372C136.792 43.7015 136.63 42.9061 136.63 41.9856C136.63 41.2953 136.722 40.6745 136.907 40.1234C137.094 39.5694 137.359 39.0978 137.7 38.7086C138.04 38.3194 138.444 38.0211 138.91 37.8137C139.376 37.6063 139.888 37.5027 140.448 37.5027C140.908 37.5027 141.337 37.5723 141.735 37.7115C142.136 37.8478 142.492 38.0424 142.805 38.2953C143.12 38.5453 143.383 38.845 143.593 39.1944C143.803 39.541 143.948 39.9259 144.028 40.3492H142.937ZM145.889 46.3492V37.622H146.946V45.4117H151.002V46.3492H145.889ZM153.696 37.622V46.3492H152.639V37.622H153.696ZM162.735 37.622V46.3492H161.712L156.957 39.497H156.871V46.3492H155.815V37.622H156.837L161.61 44.4913H161.695V37.622H162.735ZM164.85 46.3492V37.622H170.117V38.5595H165.907V41.5083H169.844V42.4458H165.907V45.4117H170.185V46.3492H164.85ZM175.397 46.3492V37.622H176.453V41.5083H181.107V37.622H182.164V46.3492H181.107V42.4458H176.453V46.3492H175.397ZM184.279 46.3492V37.622H189.547V38.5595H185.336V41.5083H189.274V42.4458H185.336V45.4117H189.615V46.3492H184.279ZM191.451 46.3492V37.622H194.4C195.082 37.622 195.642 37.7384 196.079 37.9714C196.517 38.2015 196.841 38.5183 197.051 38.9217C197.261 39.3251 197.366 39.7839 197.366 40.2981C197.366 40.8123 197.261 41.2683 197.051 41.666C196.841 42.0637 196.518 42.3762 196.083 42.6035C195.649 42.8279 195.093 42.9402 194.417 42.9402H192.031V41.9856H194.383C194.849 41.9856 195.224 41.9174 195.508 41.7811C195.795 41.6447 196.002 41.4515 196.13 41.2015C196.261 40.9487 196.326 40.6475 196.326 40.2981C196.326 39.9487 196.261 39.6433 196.13 39.3819C196 39.1205 195.791 38.9188 195.504 38.7768C195.217 38.6319 194.838 38.5595 194.366 38.5595H192.508V46.3492H191.451ZM195.559 42.4288L197.707 46.3492H196.48L194.366 42.4288H195.559ZM199.127 46.3492V37.622H204.394V38.5595H200.184V41.5083H204.121V42.4458H200.184V45.4117H204.462V46.3492H199.127Z" fill="#6EC8E2"/>
</svg>
